<?xml version="1.0" encoding="iso-8859-1"?>
<!-- Generator: Adobe Illustrator 19.0.0, SVG Export Plug-In . SVG Version: 6.00 Build 0)  -->
<svg xmlns="http://www.w3.org/2000/svg" xmlns:xlink="http://www.w3.org/1999/xlink" version="1.1" id="Capa_1" x="0px" y="0px" viewBox="0 0 512 512" style="enable-background:new 0 0 512 512;" xml:space="preserve">
<path style="fill:#F54100;" d="M512,407v60H314.11c-6.66,25.88-30.15,45-58.11,45l-50-105H512z"/>
<path style="fill:#FE834D;" d="M0,407v60h197.89c6.66,25.88,30.15,45,58.11,45V407H0z"/>
<path style="fill:#FEDC3D;" d="M256,60l-50,188.5L256,437l256-60V0H316C283,0,256,27,256,60z"/>
<g>
	<path style="fill:#FFF2B8;" d="M256,60v377L0,377V0h196C229,0,256,27,256,60z"/>
	<path style="fill:#FFF2B8;" d="M256,437l-3,36l52-56l207-10v-30H316C283,377,256,404,256,437z"/>
</g>
<path style="fill:#FFFFFF;" d="M256,437v30l-49-50L0,407v-30h196C229,377,256,404,256,437z"/>
<polygon style="fill:#027372;" points="216,83.5 216,113.5 128.75,113.5 108.945,98.5 128.75,83.5 "/>
<rect x="41.5" y="83.5" style="fill:#02ACAB;" width="87.25" height="30"/>
<polygon style="fill:#027372;" points="216,143.5 216,173.5 128.75,173.5 108.945,158.5 128.75,143.5 "/>
<rect x="41.5" y="143.5" style="fill:#02ACAB;" width="87.25" height="30"/>
<polygon style="fill:#027372;" points="216,203.5 216,233.5 128.75,233.5 108.945,218.5 128.75,203.5 "/>
<rect x="41.5" y="203.5" style="fill:#02ACAB;" width="87.25" height="30"/>
<polygon style="fill:#027372;" points="216,263.5 216,293.5 128.75,293.5 108.945,278.5 128.75,263.5 "/>
<rect x="41.5" y="263.5" style="fill:#02ACAB;" width="87.25" height="30"/>
<polygon style="fill:#013A3A;" points="470.5,83.5 470.5,113.5 383.25,113.5 363.445,98.5 383.25,83.5 "/>
<rect x="296" y="83.5" style="fill:#027372;" width="87.25" height="30"/>
<polygon style="fill:#013A3A;" points="470.5,143.5 470.5,173.5 383.25,173.5 363.445,158.5 383.25,143.5 "/>
<rect x="296" y="143.5" style="fill:#027372;" width="87.25" height="30"/>
<polygon style="fill:#013A3A;" points="470.5,203.5 470.5,233.5 383.25,233.5 363.445,218.5 383.25,203.5 "/>
<rect x="296" y="203.5" style="fill:#027372;" width="87.25" height="30"/>
<polygon style="fill:#013A3A;" points="470.5,263.5 470.5,293.5 383.25,293.5 363.445,278.5 383.25,263.5 "/>
<rect x="296" y="263.5" style="fill:#027372;" width="87.25" height="30"/>
<path style="fill:#FFE985;" d="M316,407c-33,0-60,27-60,60l-2,13.615c2.188,6.854,2,16.385,2,16.385c0-33,27-60,60-60h196v-30H316z"/>
<path style="fill:#FFF2B8;" d="M196,407H0v30h196c33,0,60,27,60,60v-30C256,434,229,407,196,407z"/>
<g>
</g>
<g>
</g>
<g>
</g>
<g>
</g>
<g>
</g>
<g>
</g>
<g>
</g>
<g>
</g>
<g>
</g>
<g>
</g>
<g>
</g>
<g>
</g>
<g>
</g>
<g>
</g>
<g>
</g>
</svg>
